<svg width="40" height="40" viewBox="0 0 40 40" fill="none" xmlns="http://www.w3.org/2000/svg">
<path fill-rule="evenodd" clip-rule="evenodd" d="M8.8214 8.82165C9.47229 8.17078 10.5276 8.17078 11.1784 8.82165L19.9999 17.6432L28.8214 8.82165C29.4723 8.17078 30.5276 8.17078 31.1784 8.82165C31.8293 9.47253 31.8293 10.5278 31.1784 11.1787L22.3569 20.0002L31.1784 28.8217C31.8293 29.4725 31.8293 30.5278 31.1784 31.1787C30.5276 31.8295 29.4723 31.8295 28.8214 31.1787L19.9999 22.3572L11.1784 31.1787C10.5276 31.8295 9.47229 31.8295 8.8214 31.1787C8.17054 30.5278 8.17054 29.4725 8.8214 28.8217L17.6429 20.0002L8.8214 11.1787C8.17054 10.5278 8.17054 9.47253 8.8214 8.82165Z" fill="white"/>
</svg>
