<svg width="80" height="80" viewBox="0 0 80 80" fill="none" xmlns="http://www.w3.org/2000/svg">
<path d="M75 5H5V75H75V5Z" fill="#F5DE19"/>
<path d="M52.0227 59.6875C52.6191 60.899 53.5457 61.9173 54.6958 62.625C55.8458 63.3327 57.1724 63.701 58.5227 63.6875C61.2477 63.6875 62.9902 62.325 62.9902 60.4375C62.9902 58.1875 61.2002 57.3825 58.2002 56.07L56.5552 55.365C51.8052 53.3425 48.6552 50.81 48.6552 45.455C48.6552 40.5225 52.4052 36.765 58.2877 36.765C60.1919 36.6275 62.0945 37.0537 63.7582 37.9904C65.4218 38.9271 66.7728 40.333 67.6427 42.0325L62.5002 45.32C62.1652 44.4773 61.582 43.7563 60.8279 43.2527C60.0738 42.7491 59.1844 42.4866 58.2777 42.5C57.8821 42.4604 57.4826 42.5036 57.1046 42.627C56.7266 42.7503 56.3785 42.951 56.0824 43.2163C55.7863 43.4816 55.5487 43.8057 55.3847 44.1679C55.2208 44.5301 55.1341 44.9224 55.1302 45.32C55.1302 47.2925 56.3527 48.0925 59.1752 49.32L60.8202 50.025C66.4102 52.4225 69.5702 54.865 69.5702 60.3575C69.5702 66.28 64.9177 69.525 58.6702 69.525C56.2359 69.6801 53.8088 69.1274 51.6817 67.9337C49.5546 66.7399 47.8184 64.9561 46.6827 62.7975L52.0227 59.6875ZM28.7852 60.2575C29.8177 62.09 30.7577 63.64 33.0177 63.64C35.1777 63.64 36.5427 62.795 36.5427 59.5075V37.14H43.1202V59.595C43.1202 66.405 39.1202 69.505 33.2977 69.505C31.2396 69.6175 29.1956 69.1046 27.4344 68.0337C25.6732 66.9628 24.2773 65.3841 23.4302 63.505L28.7852 60.2575Z" fill="black"/>
</svg>
