<svg width="32" height="32" viewBox="0 0 32 32" fill="none" xmlns="http://www.w3.org/2000/svg">
<path d="M26.666 27.7807C21.3495 32.423 13.7348 33.0206 7.95857 29.6295C6.56432 28.8124 5.27219 27.7603 4.14869 26.4733C3.50007 25.7327 2.93319 24.9411 2.44288 24.1137C0.946503 21.5653 0.221253 18.6849 0.236566 15.8095C0.267191 11.3357 2.11088 6.88741 5.67569 3.77204C8.67356 1.15204 12.366 -0.0685231 16.0432 0.00291441C18.893 0.0539769 21.7326 0.876227 24.235 2.42373C25.6139 3.27148 26.8856 4.34398 28.0041 5.62079C28.6118 6.31541 29.1532 7.04573 29.6179 7.80666C33.6015 14.2365 32.5699 22.6174 26.666 27.7807Z" fill="#F4F4F5"/>
<path d="M6.73111 5.57775C12.9758 0.118378 22.2822 0.941815 27.5945 7.01844C32.9069 13.0951 32.3063 22.2296 26.0615 27.689C19.8169 33.1484 10.3286 32.8338 5.01624 26.7573C-0.296139 20.6807 0.486361 11.0371 6.73111 5.57775Z" fill="#EDEDEC"/>
<path d="M15.2519 8.84312C14.1319 11.1725 11.3124 12.0519 8.98304 10.9319C6.65366 9.81193 5.65591 7.09712 6.77585 4.76774C7.89585 2.43836 10.703 1.38987 13.0324 2.50987C15.3618 3.62987 16.3718 6.51374 15.2519 8.84312Z" fill="#D8D8D8"/>
<path opacity="0.06" d="M8.00543 6.10312C9.12543 3.77374 11.9326 2.72524 14.262 3.84524C14.5199 3.96924 14.7616 4.11499 14.9861 4.27912C14.5277 3.5348 13.8642 2.9098 13.0324 2.50987C10.703 1.38987 7.89581 2.43836 6.77581 4.76774C5.78799 6.82224 6.44787 9.17637 8.21556 10.4718C7.43524 9.19318 7.29937 7.57162 8.00543 6.10312Z" fill="#040000"/>
<path d="M13.5702 13.6479C13.497 13.2896 13.7395 12.9493 14.0978 12.8762C14.4561 12.8031 14.8008 13.0236 14.8739 13.3819C14.947 13.7402 14.7204 14.0985 14.3621 14.1716C14.0039 14.2447 13.6433 14.0062 13.5702 13.6479Z" fill="#D8D8D8"/>
<path opacity="0.5" d="M22.6971 6.05905C22.624 5.70074 22.8665 5.36043 23.2247 5.2873C23.583 5.21418 23.9277 5.43474 24.0009 5.79299C24.074 6.1513 23.8474 6.50962 23.4891 6.58274C23.1307 6.6558 22.7702 6.4173 22.6971 6.05905Z" fill="white"/>
<path d="M17.6723 24.8993C18.2155 24.4244 19.0356 24.5083 19.5105 25.0515C19.9854 25.5947 19.9434 26.4009 19.4002 26.8758C18.857 27.3507 18.0215 27.3116 17.5466 26.7684C17.0717 26.2252 17.1291 25.3742 17.6723 24.8993Z" fill="#D8D8D8"/>
<path opacity="0.5" d="M3.64536 13.8101C3.57223 13.4517 3.81473 13.1114 4.17298 13.0383C4.5313 12.9652 4.87598 13.1857 4.94911 13.544C5.02223 13.9022 4.79561 14.2606 4.4373 14.3337C4.07898 14.4069 3.71842 14.1684 3.64536 13.8101Z" fill="white"/>
<path d="M29.3093 17.6063C29.0764 19.8969 26.9808 21.4874 24.6902 21.2546C22.3996 21.0218 20.7416 19.0497 20.9744 16.7591C21.2073 14.4686 23.2414 12.7401 25.532 12.9729C27.8226 13.2057 29.5421 15.3157 29.3093 17.6063Z" fill="#D8D8D8"/>
<path d="M10.8274 20.696C11.7419 22.279 11.1316 24.2769 9.54863 25.1913C7.96563 26.1057 5.98176 25.6064 5.06732 24.0234C4.15288 22.4404 4.65944 20.3824 6.24244 19.4679C7.82538 18.5534 9.91301 19.113 10.8274 20.696Z" fill="#D8D8D8"/>
<path opacity="0.06" d="M7.05113 20.2707C8.20513 19.604 9.62676 19.7215 10.6671 20.4469C9.68626 19.057 7.73913 18.6033 6.24244 19.468C4.65944 20.3824 4.15288 22.4405 5.06732 24.0235C5.31982 24.4605 5.65407 24.8145 6.03863 25.0794C5.98144 24.9982 5.92688 24.9142 5.87601 24.8262C4.96157 23.2432 5.46813 21.1851 7.05113 20.2707Z" fill="#040000"/>
<path opacity="0.06" d="M21.8563 17.6308C22.0891 15.3402 24.1233 13.6117 26.4139 13.8446C27.1774 13.9222 27.8773 14.2086 28.4628 14.6406C27.7749 13.7322 26.7319 13.0949 25.532 12.9729C23.2414 12.7401 21.2073 14.4686 20.9744 16.7591C20.8204 18.2746 21.4942 19.6504 22.6311 20.4756C22.0486 19.6912 21.7481 18.6955 21.8563 17.6308Z" fill="#040000"/>
<path opacity="0.1" d="M15.9256 23.8567C9.34076 23.8567 3.52445 20.6027 0.00563254 15.6283C-0.163305 21.8608 3.47763 27.7742 9.62663 30.4247C17.6749 33.8939 27.1046 30.5206 30.5738 22.4722C31.528 20.2586 31.9274 17.9256 31.8418 15.6337C28.3226 20.605 22.5081 23.8567 15.9256 23.8567Z" fill="#040000"/>
</svg>
