<svg width="80" height="80" viewBox="0 0 80 80" fill="none" xmlns="http://www.w3.org/2000/svg">
<path d="M39.9999 79.8516C38.8995 79.8516 37.8725 79.5581 36.9188 79.0446L27.162 73.2492C25.6949 72.4423 26.4284 72.1488 26.8686 72.0021C28.8493 71.3419 29.2161 71.1952 31.2702 70.0214C31.4902 69.8747 31.7837 69.9481 32.0037 70.0948L39.4864 74.5697C39.7798 74.7164 40.1466 74.7164 40.3667 74.5697L69.6371 57.6237C69.9305 57.477 70.0772 57.1835 70.0772 56.8168V22.9981C70.0772 22.6313 69.9305 22.3379 69.6371 22.1912L40.3667 5.31855C40.0733 5.17183 39.7065 5.17183 39.4864 5.31855L10.216 22.1912C9.92261 22.3379 9.77589 22.7047 9.77589 22.9981V56.8168C9.77589 57.1102 9.92261 57.477 10.216 57.6237L18.2122 62.2453C22.5404 64.4461 25.2547 61.8785 25.2547 59.311V25.9325C25.2547 25.4923 25.6215 25.0522 26.135 25.0522H29.8763C30.3165 25.0522 30.7566 25.419 30.7566 25.9325V59.311C30.7566 65.1063 27.6022 68.4809 22.1002 68.4809C20.413 68.4809 19.0925 68.4809 15.3512 66.6469L7.64847 62.2453C5.74113 61.1449 4.56738 59.0909 4.56738 56.8901V23.0715C4.56738 20.8707 5.74113 18.8167 7.64847 17.7163L36.9188 0.770272C38.7528 -0.256757 41.247 -0.256757 43.081 0.770272L72.3513 17.7163C74.2587 18.8167 75.4324 20.8707 75.4324 23.0715V56.8901C75.4324 59.0909 74.2587 61.1449 72.3513 62.2453L43.081 79.1913C42.1273 79.6315 41.0269 79.8516 39.9999 79.8516ZM49.0231 56.5967C36.1852 56.5967 33.5443 50.7279 33.5443 45.7395C33.5443 45.2993 33.9111 44.8592 34.4246 44.8592H38.2393C38.6794 44.8592 39.0462 45.1526 39.0462 45.5928C39.6331 49.4808 41.3204 51.3882 49.0965 51.3882C55.2586 51.3882 57.8996 49.9943 57.8996 46.6932C57.8996 44.7858 57.166 43.392 47.5559 42.4383C39.5598 41.6314 34.5713 39.8708 34.5713 33.4885C34.5713 27.5464 39.5598 24.0252 47.9227 24.0252C57.3127 24.0252 61.9343 27.253 62.5212 34.2955C62.5212 34.5155 62.4478 34.7356 62.3011 34.9557C62.1544 35.1024 61.9343 35.2491 61.7143 35.2491H57.8996C57.5328 35.2491 57.166 34.9557 57.0926 34.5889C56.2123 30.5541 53.9382 29.2337 47.9227 29.2337C41.1737 29.2337 40.3667 31.5812 40.3667 33.3418C40.3667 35.4692 41.3204 36.1294 50.4169 37.3032C59.4401 38.4769 63.695 40.1642 63.695 46.4731C63.6216 52.9287 58.3397 56.5967 49.0231 56.5967Z" fill="#539E43"/>
</svg>
