<svg width="80" height="80" viewBox="0 0 80 80" fill="none" xmlns="http://www.w3.org/2000/svg">
<path d="M65.2748 43.93C63.0765 43.9329 60.9077 44.4355 58.9323 45.4C58.3138 44.3736 57.8362 43.2687 57.5123 42.115C57.3262 41.2106 57.2831 40.2827 57.3848 39.365C57.5984 38.3552 57.8757 37.3599 58.2148 36.385C58.2023 36.2575 58.0623 35.655 56.6548 35.635C55.2473 35.615 54.0348 35.9025 53.9048 36.275C53.6603 36.9554 53.464 37.6521 53.3173 38.36C52.1524 41.2338 50.7185 43.991 49.0348 46.595C48.0914 45.0485 47.7034 43.2267 47.9348 41.43C48.1484 40.4202 48.4257 39.4249 48.7648 38.45C48.7523 38.3225 48.6123 37.72 47.2048 37.7C45.7973 37.68 44.5848 37.9675 44.4548 38.34C44.3248 38.7125 44.1598 39.59 43.8673 40.425C43.5748 41.26 40.1598 48.89 39.2648 50.8575C38.8048 51.8575 38.4073 52.6725 38.1273 53.2225C38.114 53.2582 38.0972 53.2925 38.0773 53.325C37.8273 53.7975 37.6948 54.055 37.6948 54.055V54.0675C37.5023 54.4125 37.2973 54.7325 37.1948 54.7325C37.016 54.0182 37.0246 53.2699 37.2198 52.56C37.7198 49.9125 38.9448 45.7975 38.9323 45.655C38.9323 45.5775 39.1623 44.8625 38.1398 44.4925C37.9026 44.3796 37.6363 44.3431 37.3775 44.3879C37.1187 44.4326 36.8802 44.5565 36.6948 44.7425C36.6048 44.7425 36.5423 44.96 36.5423 44.96C36.5423 44.96 37.6548 40.3325 34.4198 40.3325C33.16 40.5859 31.9636 41.0887 30.901 41.8112C29.8384 42.5338 28.931 43.4616 28.2323 44.54C27.3623 45.0125 25.5098 46.0225 23.5273 47.11C22.7773 47.5325 21.9923 47.955 21.2648 48.36C21.2148 48.31 21.1623 48.245 21.1123 48.195C17.1748 44 9.93727 41.04 10.2498 35.4275C10.3648 33.3825 11.0673 28.0125 24.1473 21.49C34.9123 16.185 43.4798 17.655 44.9623 20.915C47.0848 25.57 40.3723 34.2125 29.2498 35.465C28.0193 35.7146 26.7484 35.6845 25.5312 35.3768C24.3139 35.0692 23.1813 34.4918 22.2173 33.6875C21.6298 33.0475 21.5398 33.01 21.3223 33.1375C20.9648 33.33 21.1948 33.905 21.3223 34.2375C21.7466 35.0054 22.3205 35.6804 23.0101 36.2227C23.6997 36.7651 24.491 37.1637 25.3373 37.395C29.7128 38.3405 34.2749 37.8884 38.3798 36.1025C45.1298 33.495 50.3798 26.245 48.8398 20.1725C47.2923 14.01 37.0648 11.9775 27.3848 15.4225C21.3216 17.4627 15.7193 20.6762 10.8973 24.88C5.56477 29.8675 4.72227 34.2 5.06727 36.0175C6.31727 42.4625 15.1948 46.655 18.7473 49.7675C18.5673 49.87 18.4023 49.96 18.2623 50.035C16.4848 50.9175 9.70977 54.46 8.01227 58.205C6.09477 62.455 8.31977 65.4925 9.78977 65.9025C12.0048 66.4327 14.3301 66.2581 16.441 65.4029C18.552 64.5478 20.3433 63.0548 21.5648 61.1325C22.6049 59.538 23.2443 57.7158 23.4284 55.821C23.6125 53.9261 23.336 52.0149 22.6223 50.25C22.6102 50.2215 22.5933 50.1952 22.5723 50.1725L23.9648 49.355C24.8723 48.8175 25.7673 48.32 26.5348 47.91C26.0143 49.4111 25.7088 50.9783 25.6273 52.565C25.4506 54.9969 26.1948 57.4064 27.7123 59.315C27.9432 59.5137 28.2112 59.6647 28.5009 59.7591C28.7906 59.8535 29.0961 59.8895 29.3998 59.865C30.8998 59.865 31.5873 58.615 32.3398 57.13C33.2598 55.315 34.0898 53.205 34.0898 53.205C34.0898 53.205 33.0548 58.9075 35.8673 58.9075C36.8898 58.9075 37.9248 57.5775 38.3873 56.9075V56.92C38.3873 56.92 38.4123 56.8825 38.4648 56.7925L38.6298 56.525V56.5C39.0398 55.785 39.9598 54.16 41.3273 51.4625C43.0923 47.985 44.7923 43.6375 44.7923 43.6375C44.9562 44.5929 45.1825 45.5366 45.4698 46.4625C45.8815 47.5848 46.3685 48.6781 46.9273 49.735C46.5173 50.31 46.2623 50.63 46.2623 50.63L46.2748 50.6425C45.9423 51.0775 45.5848 51.55 45.1873 52.01C44.0046 53.3102 42.9073 54.6856 41.9023 56.1275C41.7529 56.3697 41.7016 56.6597 41.7587 56.9384C41.8159 57.2172 41.9772 57.4636 42.2098 57.6275C42.736 57.9013 43.3359 58.0003 43.9223 57.91C44.8059 57.8601 45.6747 57.6615 46.4923 57.3225C47.2823 57.0445 48.0276 56.6529 48.7048 56.16C49.4028 55.6764 49.9648 55.0213 50.3365 54.2577C50.7082 53.4941 50.8772 52.6478 50.8273 51.8C50.7486 50.7321 50.4759 49.6875 50.0223 48.7175C50.1498 48.5375 50.2723 48.36 50.3923 48.18C51.8136 46.0584 53.0947 43.8462 54.2273 41.5575C54.3912 42.5129 54.6175 43.4566 54.9048 44.3825C55.2444 45.3524 55.6624 46.293 56.1548 47.195C54.5196 48.453 53.2317 50.1066 52.4123 52C51.6073 54.3275 52.2323 55.375 53.4123 55.6175C54.0579 55.662 54.7036 55.5298 55.2798 55.235C56.1269 54.9566 56.925 54.5465 57.6448 54.02C58.4036 53.5721 59.0393 52.9426 59.4944 52.1881C59.9496 51.4335 60.21 50.5777 60.2523 49.6975C60.1955 48.8189 59.9971 47.9553 59.6648 47.14C61.8225 46.297 64.1621 46.0283 66.4548 46.36C72.5398 47.075 73.7423 50.8725 73.5123 52.4725C73.4044 53.0397 73.1763 53.5773 72.8435 54.049C72.5106 54.5207 72.0805 54.9158 71.5823 55.2075C71.1598 55.475 71.0198 55.565 71.0573 55.7575C71.1073 56.04 71.3073 56.025 71.6698 55.975C72.5869 55.6899 73.396 55.1336 73.9905 54.3793C74.585 53.6251 74.9369 52.7083 74.9998 51.75C75.1923 48 71.6123 43.8875 65.2823 43.925L65.2748 43.93ZM18.3248 59.75C16.3048 61.95 13.4923 62.78 12.2773 62.0775C10.9723 61.3275 11.4848 58.0775 13.9648 55.7475C15.4359 54.4232 17.0259 53.2374 18.7148 52.205C19.0098 52.025 19.4448 51.77 19.9648 51.455L20.1048 51.3775L20.4123 51.185C20.8553 52.6695 20.8955 54.2451 20.5287 55.7502C20.1618 57.2554 19.4012 58.6358 18.3248 59.75ZM33.0273 49.75C32.3248 51.4625 30.8548 55.85 29.9598 55.605C29.1923 55.4 28.7098 52.075 29.8073 48.79C30.3614 47.2086 31.1686 45.7277 32.1973 44.405C33.2973 43.1775 34.5123 42.7675 34.8048 43.2675C34.5379 45.5047 33.9388 47.6896 33.0273 49.75ZM45.1598 55.555C44.8648 55.7075 44.5848 55.805 44.4573 55.735C44.3673 55.685 44.5848 55.485 44.5848 55.485C44.5848 55.485 46.1073 53.8475 46.7073 53.1075C47.0523 52.6725 47.4573 52.1625 47.8973 51.585V51.75C47.8973 53.705 46.0048 55.0225 45.1623 55.56L45.1598 55.555ZM54.5198 53.42C54.3023 53.2675 54.3398 52.755 55.0698 51.1575C55.5773 50.1315 56.2865 49.2183 57.1548 48.4725C57.2879 48.8509 57.3571 49.2488 57.3598 49.65C57.3696 50.5038 57.0966 51.3369 56.5833 52.0194C56.07 52.7018 55.3453 53.1951 54.5223 53.4225L54.5198 53.42Z" fill="#CD6799"/>
</svg>
